<?xml version="1.0" encoding="utf-8"?>
<!-- Generator: Adobe Illustrator 19.0.0, SVG Export Plug-In . SVG Version: 6.00 Build 0)  -->
<svg version="1.1" id="Layer_1" xmlns="http://www.w3.org/2000/svg" xmlns:xlink="http://www.w3.org/1999/xlink" x="0px" y="0px"
	 viewBox="0 0 1024 1024" style="enable-background:new 0 0 1024 1024;" xml:space="preserve">
<style type="text/css">
	.st0{fill:#010101;}
</style>
<path class="st0" d="M384,810.7c0,23.6-19.1,42.7-42.7,42.7s-42.7-19.1-42.7-42.7V384c0-23.6,19.1-42.7,42.7-42.7S384,360.4,384,384
	V810.7z M554.7,810.7c0,23.6-19.1,42.7-42.7,42.7s-42.7-19.1-42.7-42.7V384c0-23.6,19.1-42.7,42.7-42.7s42.7,19.1,42.7,42.7V810.7z
	 M725.3,810.7c0,23.6-19.1,42.7-42.7,42.7S640,834.2,640,810.7V384c0-23.6,19.1-42.7,42.7-42.7s42.7,19.1,42.7,42.7V810.7z
	 M938.7,85.3v85.3H85.3V85.3H329c38.4,0,69.6-46.9,69.6-85.3h226.8c0,38.4,31.1,85.3,69.6,85.3H938.7z M810.7,256v682.7H213.3V256
	H128v768h768V256H810.7z"/>
</svg>
